grf
version=1
nRows=19
nColumns=37
inDegrees=no
endheader
time	ground_force_1_vx	ground_force_1_vy	ground_force_1_vz	ground_force_1_px	ground_force_1_py	ground_force_1_pz	ground_moment_1_mx	ground_moment_1_my	ground_moment_1_mz	ground_force_2_vx	ground_force_2_vy	ground_force_2_vz	ground_force_2_px	ground_force_2_py	ground_force_2_pz	ground_moment_2_mx	ground_moment_2_my	ground_moment_2_mz	ground_force_3_vx	ground_force_3_vy	ground_force_3_vz	ground_force_3_px	ground_force_3_py	ground_force_3_pz	ground_moment_3_mx	ground_moment_3_my	ground_moment_3_mz	ground_force_4_vx	ground_force_4_vy	ground_force_4_vz	ground_force_4_px	ground_force_4_py	ground_force_4_pz	ground_moment_4_mx	ground_moment_4_my	ground_moment_4_mz
      0.00000000	      0.00000000	     -0.00000000	      0.00000000	      0.00000000	      0.00000000	      0.00000000	      0.00000000	      0.00000000	      0.00000000	     -0.74198580	     17.46955872	   -248.80604553	   -319.92093760	  -1031.00651942	      0.00000000	      0.00000000	      0.00000000	   1482.40932709	     -2.48763841	    -29.28421571	   -371.49731445	   -304.34419284	   -769.96433314	      0.00000000	      0.00000000	     -0.00000000	  -2010.23166212	      0.00000000	     -0.00000000	      0.00000000	      0.00000000	      0.00000000	      0.00000000	      0.00000000	      0.00000000	      0.00000000
      0.01000000	      0.00000000	     -0.00000000	      0.00000000	      0.00000000	      0.00000000	      0.00000000	      0.00000000	      0.00000000	      0.00000000	     -0.48339599	     17.20216751	   -248.63867188	   -318.64154223	  -1031.16879414	      0.00000000	      0.00000000	      0.00000000	   1691.66892955	     -2.00578490	    -28.93119985	   -371.48193359	   -303.88462698	   -770.02563600	      0.00000000	     -0.00000000	     -0.00000000	  -1989.14424497	      0.00000000	     -0.00000000	      0.00000000	      0.00000000	      0.00000000	      0.00000000	      0.00000000	      0.00000000	      0.00000000
      0.02000000	      0.00000000	     -0.00000000	      0.00000000	      0.00000000	      0.00000000	      0.00000000	      0.00000000	      0.00000000	      0.00000000	     -0.76588023	     17.44933510	   -248.15898132	   -317.89740525	  -1031.86782432	      0.00000000	      0.00000000	      0.00000000	   1584.05169687	     -2.30234874	    -28.75076655	   -372.39462280	   -304.36550627	   -769.36114964	      0.00000000	      0.00000000	     -0.00000000	  -1803.34077352	      0.00000000	     -0.00000000	      0.00000000	      0.00000000	      0.00000000	      0.00000000	      0.00000000	      0.00000000	      0.00000000
      0.03000000	      0.00000000	     -0.00000000	      0.00000000	      0.00000000	      0.00000000	      0.00000000	      0.00000000	      0.00000000	      0.00000000	     -1.02326393	     17.33851814	   -246.80966187	   -318.01948226	  -1032.56284242	      0.00000000	      0.00000000	      0.00000000	   1507.74980283	     -2.43735613	    -28.86809137	   -372.69345093	   -304.86441723	   -769.82159495	      0.00000000	      0.00000000	     -0.00000000	  -1727.53084986	      0.00000000	     -0.00000000	      0.00000000	      0.00000000	      0.00000000	      0.00000000	      0.00000000	      0.00000000	      0.00000000
      0.04000000	      0.00000000	     -0.00000000	      0.00000000	      0.00000000	      0.00000000	      0.00000000	      0.00000000	      0.00000000	      0.00000000	     -0.79736108	     17.04359245	   -245.64759827	   -317.58972830	  -1032.98103991	      0.00000000	      0.00000000	      0.00000000	   1451.96658659	     -2.17111457	    -28.70913105	   -372.76467896	   -305.28382202	   -769.22258947	      0.00000000	      0.00000000	     -0.00000000	  -1859.26574866	      0.00000000	     -0.00000000	      0.00000000	      0.00000000	      0.00000000	      0.00000000	      0.00000000	      0.00000000	      0.00000000
      0.05000000	      0.00000000	     -0.00000000	      0.00000000	      0.00000000	      0.00000000	      0.00000000	      0.00000000	      0.00000000	      0.00000000	     -0.91670823	     17.38042831	   -243.60365295	   -317.46925052	  -1032.25773030	      0.00000000	      0.00000000	      0.00000000	   1362.83649875	     -1.85335957	    -28.50041564	   -371.49731445	   -305.09835189	   -769.06236660	      0.00000000	     -0.00000000	     -0.00000000	  -1699.93587544	      0.00000000	     -0.00000000	      0.00000000	      0.00000000	      0.00000000	      0.00000000	      0.00000000	      0.00000000	      0.00000000
      0.06000000	      0.00000000	     -0.00000000	      0.00000000	      0.00000000	      0.00000000	      0.00000000	      0.00000000	      0.00000000	      0.00000000	     -0.56502759	     16.63764763	   -241.64558411	   -318.00054191	  -1033.85717140	      0.00000000	      0.00000000	      0.00000000	   1469.31431863	     -1.50308095	    -28.48125254	   -371.00314331	   -305.59705695	   -768.83635224	      0.00000000	      0.00000000	     -0.00000000	  -1808.61965759	      0.00000000	     -0.00000000	      0.00000000	      0.00000000	      0.00000000	      0.00000000	      0.00000000	      0.00000000	      0.00000000
      0.07000000	      0.00000000	     -0.00000000	      0.00000000	      0.00000000	      0.00000000	      0.00000000	      0.00000000	      0.00000000	      0.00000000	     -0.40454203	     16.39999390	   -239.43148804	   -318.21730068	  -1031.26494237	      0.00000000	      0.00000000	      0.00000000	   1457.90123778	     -1.21073960	    -28.48112668	   -369.79296875	   -307.14470009	   -768.48042022	      0.00000000	     -0.00000000	     -0.00000000	  -1773.37650494	      0.00000000	     -0.00000000	      0.00000000	      0.00000000	      0.00000000	      0.00000000	      0.00000000	      0.00000000	      0.00000000
      0.08000000	      0.00000000	     -0.00000000	      0.00000000	      0.00000000	      0.00000000	      0.00000000	      0.00000000	      0.00000000	      0.00000000	     -1.02912533	     16.46991348	   -238.04327393	   -318.48189675	  -1032.84362815	      0.00000000	      0.00000000	      0.00000000	   1362.87321525	     -0.54321714	    -28.78196712	   -369.19552612	   -307.13956456	   -768.67194822	      0.00000000	      0.00000000	     -0.00000000	  -1614.10457348	      0.00000000	     -0.00000000	      0.00000000	      0.00000000	      0.00000000	      0.00000000	      0.00000000	      0.00000000	      0.00000000
      0.09000000	      0.00000000	     -0.00000000	      0.00000000	      0.00000000	      0.00000000	      0.00000000	      0.00000000	      0.00000000	      0.00000000	     -0.90528566	     16.36530495	   -236.19909668	   -319.63556549	  -1030.14472313	      0.00000000	      0.00000000	      0.00000000	   1465.86400803	     -0.00000249	    -28.46966743	   -367.98358154	   -308.05046371	   -768.46641992	      0.00000000	      0.00000000	     -0.00000000	  -1810.50976011	      0.00000000	     -0.00000000	      0.00000000	      0.00000000	      0.00000000	      0.00000000	      0.00000000	      0.00000000	      0.00000000
      0.10000000	      0.00000000	     -0.00000000	      0.00000000	      0.00000000	      0.00000000	      0.00000000	      0.00000000	      0.00000000	      0.00000000	     -0.75488365	     16.57825470	   -235.10865784	   -318.53880804	  -1029.11478873	      0.00000000	      0.00000000	      0.00000000	   1596.35031660	     -0.22471701	    -28.52205465	   -366.07391357	   -308.63622264	   -769.45725750	      0.00000000	      0.00000000	     -0.00000000	  -1680.95611035	      0.00000000	     -0.00000000	      0.00000000	      0.00000000	      0.00000000	      0.00000000	      0.00000000	      0.00000000	      0.00000000
      0.11000000	      0.00000000	     -0.00000000	      0.00000000	      0.00000000	      0.00000000	      0.00000000	      0.00000000	      0.00000000	      0.00000000	     -1.16680121	     16.98992920	   -234.59017944	   -318.52946520	  -1030.31335541	      0.00000000	      0.00000000	      0.00000000	   1544.93409885	      0.14225397	    -27.90355302	   -365.09829712	   -308.90263966	   -769.90115491	      0.00000000	      0.00000000	     -0.00000000	  -1722.73388829	      0.00000000	     -0.00000000	      0.00000000	      0.00000000	      0.00000000	      0.00000000	      0.00000000	      0.00000000	      0.00000000
      0.12000000	      0.00000000	     -0.00000000	      0.00000000	      0.00000000	      0.00000000	      0.00000000	      0.00000000	      0.00000000	      0.00000000	     -1.65403652	     16.58553314	   -231.79052734	   -317.77379731	  -1030.44588978	      0.00000000	      0.00000000	      0.00000000	   1386.76646638	     -0.15838862	    -27.67937277	   -364.14016724	   -308.96154888	   -768.86081628	      0.00000000	     -0.00000000	     -0.00000000	  -1676.24192794	      0.00000000	     -0.00000000	      0.00000000	      0.00000000	      0.00000000	      0.00000000	      0.00000000	      0.00000000	      0.00000000
      0.13000000	      0.00000000	     -0.00000000	      0.00000000	      0.00000000	      0.00000000	      0.00000000	      0.00000000	      0.00000000	      0.00000000	     -1.46077526	     16.39253426	   -231.11193848	   -317.24893610	  -1033.47120510	      0.00000000	      0.00000000	     -0.00000000	   1549.35953890	     -0.56683434	    -27.33231349	   -361.42330933	   -309.10531650	   -769.48911216	      0.00000000	     -0.00000000	     -0.00000000	  -1667.59874838	      0.00000000	     -0.00000000	      0.00000000	      0.00000000	      0.00000000	      0.00000000	      0.00000000	      0.00000000	      0.00000000
      0.14000000	      0.00000000	     -0.00000000	      0.00000000	      0.00000000	      0.00000000	      0.00000000	      0.00000000	      0.00000000	      0.00000000	     -2.01108003	     16.38463402	   -227.28649902	   -317.99799241	  -1031.25972176	      0.00000000	      0.00000000	      0.00000000	   1390.94767571	     -0.89385579	    -27.06723778	   -360.16317749	   -308.74209391	   -767.84102232	      0.00000000	      0.00000000	      0.00000000	  -1662.32986598	      0.00000000	     -0.00000000	      0.00000000	      0.00000000	      0.00000000	      0.00000000	      0.00000000	      0.00000000	      0.00000000
      0.15000000	      0.00000000	     -0.00000000	      0.00000000	      0.00000000	      0.00000000	      0.00000000	      0.00000000	      0.00000000	      0.00000000	     -2.29471922	     15.83254623	   -226.41976929	   -317.69389903	  -1030.44954115	      0.00000000	      0.00000000	      0.00000000	   1416.15833882	     -1.59679651	    -27.25072275	   -358.98294067	   -309.07942211	   -768.34544961	      0.00000000	      0.00000000	     -0.00000000	  -1558.99159785	      0.00000000	     -0.00000000	      0.00000000	      0.00000000	      0.00000000	      0.00000000	      0.00000000	      0.00000000	      0.00000000
      0.16000000	      0.00000000	     -0.00000000	      0.00000000	      0.00000000	      0.00000000	      0.00000000	      0.00000000	      0.00000000	      0.00000000	     -2.55473995	     15.95434189	   -225.48922729	   -316.51068538	  -1030.97064542	      0.00000000	      0.00000000	     -0.00000000	   1352.20961880	     -1.67107487	    -27.25083146	   -358.36154175	   -309.70862883	   -768.82593278	      0.00000000	      0.00000000	      0.00000000	  -1635.98188406	      0.00000000	     -0.00000000	      0.00000000	      0.00000000	      0.00000000	      0.00000000	      0.00000000	      0.00000000	      0.00000000
      0.17000000	      0.00000000	     -0.00000000	      0.00000000	      0.00000000	      0.00000000	      0.00000000	      0.00000000	      0.00000000	      0.00000000	     -2.56336164	     16.14093971	   -226.26130676	   -317.13965623	  -1031.95810561	      0.00000000	      0.00000000	      0.00000000	   1349.53145252	     -1.35651993	    -27.23618877	   -359.24789429	   -309.62329697	   -768.78920679	      0.00000000	      0.00000000	      0.00000000	  -1838.62615861	      0.00000000	     -0.00000000	      0.00000000	      0.00000000	      0.00000000	      0.00000000	      0.00000000	      0.00000000	      0.00000000
      0.18000000	      0.00000000	     -0.00000000	      0.00000000	      0.00000000	      0.00000000	      0.00000000	      0.00000000	      0.00000000	      0.00000000	     -2.68488336	     16.56113434	   -228.57525635	   -317.50379562	  -1031.91642752	      0.00000000	      0.00000000	     -0.00000000	   1435.74950743	     -1.36358679	    -27.33935535	   -359.59619141	   -310.20287666	   -770.30176989	      0.00000000	     -0.00000000	      0.00000000	  -1748.59328405	      0.00000000	     -0.00000000	      0.00000000	      0.00000000	      0.00000000	      0.00000000	      0.00000000	      0.00000000	      0.00000000
